<svg width="1600" height="900" viewBox="0 0 1600 900" fill="none" xmlns="http://www.w3.org/2000/svg" role="img" aria-label="Travel placeholder image">
  <defs>
    <linearGradient id="bg" x1="0" y1="0" x2="1600" y2="900" gradientUnits="userSpaceOnUse">
      <stop stop-color="#1E3A5F"/>
      <stop offset="1" stop-color="#2A6C8F"/>
    </linearGradient>
    <linearGradient id="sun" x1="1110" y1="130" x2="1360" y2="350" gradientUnits="userSpaceOnUse">
      <stop stop-color="#F8D694"/>
      <stop offset="1" stop-color="#E9A75A"/>
    </linearGradient>
  </defs>

  <rect width="1600" height="900" fill="url(#bg)"/>
  <circle cx="1240" cy="230" r="120" fill="url(#sun)" opacity="0.85"/>

  <path d="M0 740L260 560L470 660L720 460L980 640L1240 500L1600 740V900H0V740Z" fill="#18344F" opacity="0.75"/>
  <path d="M0 790L220 670L420 760L700 580L920 710L1180 610L1600 790V900H0V790Z" fill="#142B43" opacity="0.9"/>

  <g opacity="0.65">
    <path d="M520 350L610 320L700 350V450H520V350Z" fill="#F3F0E9"/>
    <rect x="560" y="370" width="100" height="12" rx="6" fill="#D8CFC1"/>
    <rect x="560" y="392" width="82" height="10" rx="5" fill="#D8CFC1"/>
    <rect x="560" y="412" width="64" height="10" rx="5" fill="#D8CFC1"/>
  </g>

  <text x="80" y="820" fill="#F3F0E9" font-family="ui-sans-serif, system-ui, -apple-system, Segoe UI, Roboto" font-size="42" font-weight="600" letter-spacing="1.2">Travel image unavailable</text>
</svg>
